<?xml version="1.0" encoding="UTF-8" standalone="no"?>
<svg
   xmlns:dc="http://purl.org/dc/elements/1.1/"
   xmlns:cc="http://creativecommons.org/ns#"
   xmlns:rdf="http://www.w3.org/1999/02/22-rdf-syntax-ns#"
   xmlns:svg="http://www.w3.org/2000/svg"
   xmlns="http://www.w3.org/2000/svg"
   xmlns:sodipodi="http://sodipodi.sourceforge.net/DTD/sodipodi-0.dtd"
   xmlns:inkscape="http://www.inkscape.org/namespaces/inkscape"
   version="1.1"
   id="Layer_1"
   x="0px"
   y="0px"
   viewBox="0 0 126.7 30"
   style="enable-background:new 0 0 126.7 30;"
   xml:space="preserve"
   sodipodi:docname="nexizon.svg"><metadata
   id="metadata29"><rdf:RDF><cc:Work
       rdf:about=""><dc:format>image/svg+xml</dc:format><dc:type
         rdf:resource="http://purl.org/dc/dcmitype/StillImage" /></cc:Work></rdf:RDF></metadata><defs
   id="defs27" /><sodipodi:namedview
   pagecolor="#ffffff"
   bordercolor="#666666"
   borderopacity="1"
   objecttolerance="10"
   gridtolerance="10"
   guidetolerance="10"
   inkscape:pageopacity="0"
   inkscape:pageshadow="2"
   inkscape:window-width="640"
   inkscape:window-height="480"
   id="namedview25" />
<style
   type="text/css"
   id="style2">
	.st0{fill:#F26722;}
</style>
<path
   d="M10.2,7.6c-2.4,0-4.5,0.9-6.3,2.6c-1.7,1.7-2.6,3.8-2.6,6.3v11h2.3v-11c0-1.8,0.6-3.4,1.9-4.7c1.3-1.3,2.8-1.9,4.7-1.9  c1.8,0,3.3,0.6,4.6,1.9c1.3,1.3,1.9,2.8,1.9,4.7v11h2.3v-11c0-2.4-0.9-4.5-2.6-6.3C14.7,8.5,12.6,7.6,10.2,7.6"
   id="path4" />
<path
   d="M38.5,10.4c-1.9-1.8-4.3-2.7-6.9-2.7c-2.8,0-5.2,1-7.2,3c-2,2-3,4.4-3,7.2s1,5.2,3,7.2c2,2,4.4,3,7.2,3  c2.2,0,4.2-0.6,5.9-1.9c1.7-1.2,3-2.9,3.7-4.8l0.2-0.6H39l-0.1,0.3c-0.6,1.4-1.6,2.6-2.9,3.4c-1.3,0.9-2.8,1.3-4.4,1.3  c-2.1,0-3.9-0.7-5.5-2.2c-1.4-1.3-2.2-3-2.4-4.9h18.1l0-0.9c0-0.3,0-0.6-0.1-0.9C41.5,14.4,40.4,12.2,38.5,10.4 M23.7,16.6  c0.3-1.8,1.1-3.3,2.5-4.6c1.5-1.4,3.3-2.1,5.3-2.1c2,0,3.8,0.7,5.3,2.1c1.4,1.2,2.2,2.8,2.5,4.6H23.7z"
   id="path6" />
<polygon
   points="55.6,8.4 50.2,16 44.8,8.4 42.1,8.4 48.9,17.9 42.1,27.5 44.8,27.5 50.2,19.9 55.6,27.5 58.4,27.5 51.6,17.9   58.4,8.4 "
   id="polygon8" />
<rect
   x="59.8"
   y="8.4"
   class="st0"
   width="2.3"
   height="19.1"
   id="rect10" />
<polygon
   points="64.3,8.4 64.3,10.7 74.1,10.7 64,27.5 77.9,27.5 77.9,25.2 68.2,25.2 78.3,8.4 "
   id="polygon12" />
<path
   d="M89.3,7.7c-2.8,0-5.2,1-7.2,3c-2,2-3,4.4-3,7.2s1,5.2,3,7.2c2,2,4.4,3,7.2,3c2.8,0,5.2-1,7.2-3c2-2,3-4.4,3-7.2  s-1-5.2-3-7.2C94.5,8.7,92.1,7.7,89.3,7.7 M94.9,23.6c-1.5,1.5-3.4,2.3-5.6,2.3c-2.2,0-4.1-0.8-5.6-2.3c-1.5-1.5-2.3-3.4-2.3-5.6  s0.8-4.1,2.3-5.6c1.5-1.5,3.4-2.3,5.6-2.3c2.2,0,4.1,0.8,5.6,2.3c1.5,1.5,2.3,3.4,2.3,5.6S96.5,22.1,94.9,23.6"
   id="path14" />
<path
   d="M110.6,7.6c-2.4,0-4.5,0.9-6.3,2.6c-1.7,1.7-2.6,3.8-2.6,6.3v11h2.3v-11c0-1.8,0.6-3.4,1.9-4.7c1.3-1.3,2.8-1.9,4.7-1.9  c1.8,0,3.3,0.6,4.6,1.9c1.3,1.3,1.9,2.8,1.9,4.7v11h2.3v-11c0-2.4-0.9-4.5-2.6-6.3C115.2,8.5,113.1,7.6,110.6,7.6"
   id="path16" />
<path
   d="M121.7,4.9c-1.9,0-3.2,1.4-3.2,3.2c0,1.8,1.3,3.2,3.3,3.2c2,0,3.3-1.5,3.3-3.2C125,6.3,123.7,4.9,121.7,4.9 M121.7,10.7  c-1.6,0-2.5-1.1-2.5-2.5c0-1.5,0.9-2.5,2.5-2.5c1.6,0,2.6,1,2.6,2.5C124.3,9.6,123.3,10.7,121.7,10.7"
   id="path18" />
<path
   d="M123.1,7.5c0-0.6-0.4-1.1-1.2-1.1h-1.4v3.4h0.7V8.6h0.6l0.5,1.2h0.8l-0.6-1.3C122.9,8.3,123.1,8,123.1,7.5 M121.9,8h-0.6V7  h0.6c0.3,0,0.5,0.2,0.5,0.5C122.3,7.8,122.2,8,121.9,8"
   id="path20" />
<path
   class="st0"
   d="M61,0.6c-1.7,0-3.1,1.4-3.1,3.1s1.4,3.1,3.1,3.1c1.7,0,3.1-1.4,3.1-3.1S62.7,0.6,61,0.6 M62.1,5.6  c-0.5,0-1-0.4-1-1c0-0.5,0.4-1,1-1c0.5,0,1,0.4,1,1C63.1,5.2,62.7,5.6,62.1,5.6"
   id="path22" />
</svg>
